<svg width="300" height="150" viewBox="0 0 300 150" fill="none" xmlns="http://www.w3.org/2000/svg">
<rect width="300" height="150" fill="url(#paint0_linear)"/>
<g filter="url(#filter0_d)">
<path fill-rule="evenodd" clip-rule="evenodd" d="M87.3677 42.51C87.4967 42.5034 87.6264 42.5 87.7568 42.5H102.828C108.288 42.5 112.488 43.88 115.428 46.64C118.368 49.4 119.838 53.03 119.838 57.53C119.838 61.25 118.668 64.7 116.328 67.88C115.661 68.7686 114.946 69.5696 114.182 70.2829C112.264 72.0744 110.039 73.3134 107.508 74C109.848 74.72 111.858 76.25 113.538 78.59C115.278 80.87 116.148 83.57 116.148 86.69C116.148 92.39 114.078 97.1 109.938 100.82C105.798 104.48 100.488 106.31 94.0075 106.31H47.6375C44.7794 106.31 42.4625 103.993 42.4625 101.135C42.4625 98.2769 44.7794 95.96 47.6375 95.96H70.3672L73.9295 79.1225H37.6375C34.8001 79.1225 32.5 76.8224 32.5 73.985C32.5 71.1476 34.8001 68.8475 37.6375 68.8475H76.1033L79.4751 52.91H50.1375C47.2656 52.91 44.9375 50.5819 44.9375 47.71C44.9375 44.8381 47.2656 42.51 50.1375 42.51H87.3677ZM96.6175 68.87H88.2475L91.6675 52.94H99.1375C101.838 52.94 103.878 53.54 105.258 54.74C106.638 55.88 107.328 57.47 107.328 59.51C107.328 62.33 106.338 64.61 104.358 66.35C102.378 68.03 99.7975 68.87 96.6175 68.87ZM82.5775 95.96L86.0875 79.13H95.3575C98.1775 79.13 100.278 79.76 101.658 81.02C103.098 82.28 103.818 83.99 103.818 86.15C103.818 89.09 102.738 91.46 100.578 93.26C98.4175 95.06 95.6575 95.96 92.2975 95.96H82.5775Z" fill="white"/>
<path d="M125.401 106.31C121.484 106.31 118.561 102.705 119.37 98.873L130.263 47.3878L130.264 47.3848C130.868 44.5371 133.382 42.5 136.293 42.5C140.21 42.5 143.133 46.1051 142.324 49.9367L131.431 101.425C130.827 104.273 128.312 106.31 125.401 106.31Z" fill="white"/>
<path d="M174.883 106.31C177.688 106.31 180.111 104.348 180.693 101.604L180.694 101.601C181.476 97.907 178.659 94.43 174.883 94.43H154.495L163.925 49.8329C164.724 46.0549 161.842 42.5 157.98 42.5C155.112 42.5 152.635 44.5056 152.038 47.3101L141.47 97.2576C140.484 101.921 144.041 106.31 148.808 106.31H174.883Z" fill="white"/>
<path d="M194.117 106.31C190.201 106.31 187.278 102.705 188.087 98.8741L198.981 47.3789C199.587 44.5342 202.1 42.5 205.009 42.5C208.927 42.5 211.85 46.1067 211.04 49.9393L200.148 101.422C199.545 104.271 197.03 106.31 194.117 106.31Z" fill="white"/>
<path d="M261.823 54.29C264.604 54.29 267.007 52.3466 267.588 49.6272C268.372 45.9583 265.575 42.5 261.824 42.5H223.57C220.791 42.5 218.389 44.4411 217.806 47.158L217.805 47.1628L217.804 47.1677C217.023 50.8348 219.82 54.29 223.57 54.29H235.632L226.199 98.979L226.198 98.9843C225.404 102.76 228.285 106.31 232.144 106.31C235.016 106.31 237.496 104.299 238.089 101.489L246.796 60.2411L246.798 60.2281L248.052 54.29H261.823Z" fill="white"/>
</g>
<defs>
<filter id="filter0_d" x="30" y="40" width="245.221" height="73.81" filterUnits="userSpaceOnUse" color-interpolation-filters="sRGB">
<feFlood flood-opacity="0" result="BackgroundImageFix"/>
<feColorMatrix in="SourceAlpha" type="matrix" values="0 0 0 0 0 0 0 0 0 0 0 0 0 0 0 0 0 0 127 0"/>
<feOffset dx="2.5" dy="2.5"/>
<feGaussianBlur stdDeviation="2.5"/>
<feColorMatrix type="matrix" values="0 0 0 0 0 0 0 0 0 0 0 0 0 0 0 0 0 0 0.4 0"/>
<feBlend mode="normal" in2="BackgroundImageFix" result="effect1_dropShadow"/>
<feBlend mode="normal" in="SourceGraphic" in2="effect1_dropShadow" result="shape"/>
</filter>
<linearGradient id="paint0_linear" x1="0" y1="0" x2="300" y2="150" gradientUnits="userSpaceOnUse">
<stop stop-color="#5DC9E2"/>
<stop offset="1" stop-color="#00ADD8"/>
</linearGradient>
</defs>
</svg>
