<svg width="473" height="150" viewBox="0 0 473 150" fill="none" xmlns="http://www.w3.org/2000/svg">
<rect width="473" height="150" rx="7.5" fill="url(#paint0_linear)"/>
<g filter="url(#filter0_d)">
<path fill-rule="evenodd" clip-rule="evenodd" d="M87.3677 42.51C87.4967 42.5034 87.6264 42.5 87.7568 42.5H102.828C108.288 42.5 112.488 43.88 115.428 46.64C118.368 49.4 119.838 53.03 119.838 57.53C119.838 61.25 118.668 64.7 116.328 67.88C115.661 68.7686 114.946 69.5696 114.182 70.2829C112.264 72.0744 110.039 73.3134 107.508 74C109.848 74.72 111.858 76.25 113.538 78.59C115.278 80.87 116.148 83.57 116.148 86.69C116.148 92.39 114.078 97.1 109.938 100.82C105.798 104.48 100.488 106.31 94.0075 106.31H47.6375C44.7794 106.31 42.4625 103.993 42.4625 101.135C42.4625 98.2769 44.7794 95.96 47.6375 95.96H70.3672L73.9295 79.1225H37.6375C34.8001 79.1225 32.5 76.8224 32.5 73.985C32.5 71.1476 34.8001 68.8475 37.6375 68.8475H76.1033L79.4751 52.91H50.1375C47.2656 52.91 44.9375 50.5819 44.9375 47.71C44.9375 44.8381 47.2656 42.51 50.1375 42.51H87.3677ZM96.6175 68.87H88.2475L91.6675 52.94H99.1375C101.838 52.94 103.878 53.54 105.258 54.74C106.638 55.88 107.328 57.47 107.328 59.51C107.328 62.33 106.338 64.61 104.358 66.35C102.378 68.03 99.7975 68.87 96.6175 68.87ZM82.5775 95.96L86.0875 79.13H95.3575C98.1775 79.13 100.278 79.76 101.658 81.02C103.098 82.28 103.818 83.99 103.818 86.15C103.818 89.09 102.738 91.46 100.578 93.26C98.4175 95.06 95.6575 95.96 92.2975 95.96H82.5775Z" fill="white"/>
<path d="M125.401 106.31C121.484 106.31 118.561 102.705 119.37 98.873L130.263 47.3878L130.264 47.3848C130.868 44.5371 133.382 42.5 136.293 42.5C140.21 42.5 143.133 46.1051 142.324 49.9367L131.431 101.425C130.827 104.273 128.312 106.31 125.401 106.31Z" fill="white"/>
<path d="M174.883 106.31C177.688 106.31 180.111 104.348 180.693 101.604L180.694 101.601C181.476 97.907 178.659 94.43 174.883 94.43H154.495L163.925 49.8329C164.724 46.0549 161.842 42.5 157.98 42.5C155.112 42.5 152.635 44.5056 152.038 47.3101L141.47 97.2576C140.484 101.921 144.041 106.31 148.808 106.31H174.883Z" fill="white"/>
<path d="M194.117 106.31C190.201 106.31 187.278 102.705 188.087 98.8741L198.981 47.3789C199.587 44.5342 202.1 42.5 205.009 42.5C208.927 42.5 211.85 46.1067 211.04 49.9393L200.148 101.422C199.545 104.271 197.03 106.31 194.117 106.31Z" fill="white"/>
<path d="M261.823 54.29C264.604 54.29 267.007 52.3466 267.588 49.6272C268.372 45.9583 265.575 42.5 261.824 42.5H223.57C220.791 42.5 218.389 44.4411 217.806 47.158L217.805 47.1628L217.804 47.1677C217.023 50.8348 219.82 54.29 223.57 54.29H235.632L226.199 98.979L226.198 98.9843C225.404 102.76 228.285 106.31 232.144 106.31C235.016 106.31 237.496 104.299 238.089 101.489L246.796 60.2411L246.798 60.2281L248.052 54.29H261.823Z" fill="white"/>
</g>
<path d="M301.517 54.5H308.974C312.895 54.5 314.983 52.4545 314.983 49.6761C314.983 47.0938 313.134 45.5341 311.148 45.4403V45.2699C312.963 44.8608 314.301 43.5739 314.301 41.5199C314.301 38.9034 312.358 37.0455 308.506 37.0455H301.517V54.5ZM305.207 51.483V46.8466H308.301C310.074 46.8466 311.173 47.8693 311.173 49.3097C311.173 50.6222 310.278 51.483 308.216 51.483H305.207ZM305.207 44.3494V40.0284H308.011C309.648 40.0284 310.577 40.8722 310.577 42.1335C310.577 43.5142 309.452 44.3494 307.943 44.3494H305.207ZM317.316 54.5H320.947V41.4091H317.316V54.5ZM319.14 39.7216C320.222 39.7216 321.109 38.8949 321.109 37.8807C321.109 36.875 320.222 36.0483 319.14 36.0483C318.066 36.0483 317.18 36.875 317.18 37.8807C317.18 38.8949 318.066 39.7216 319.14 39.7216ZM328.679 54.7131C330.793 54.7131 331.892 53.4943 332.395 52.4034H332.548V54.5H336.128V37.0455H332.506V43.608H332.395C331.909 42.5426 330.861 41.2386 328.67 41.2386C325.798 41.2386 323.369 43.4716 323.369 47.9716C323.369 52.3523 325.696 54.7131 328.679 54.7131ZM329.83 51.8239C328.048 51.8239 327.077 50.2386 327.077 47.9545C327.077 45.6875 328.031 44.1278 329.83 44.1278C331.594 44.1278 332.582 45.6193 332.582 47.9545C332.582 50.2898 331.577 51.8239 329.83 51.8239ZM339.113 54.5H342.744V41.4091H339.113V54.5ZM340.937 39.7216C342.019 39.7216 342.906 38.8949 342.906 37.8807C342.906 36.875 342.019 36.0483 340.937 36.0483C339.863 36.0483 338.977 36.875 338.977 37.8807C338.977 38.8949 339.863 39.7216 340.937 39.7216ZM345.652 54.5H349.283V47.0938C349.283 45.483 350.459 44.375 352.061 44.375C352.564 44.375 353.254 44.4602 353.595 44.571V41.3494C353.271 41.2727 352.82 41.2216 352.453 41.2216C350.987 41.2216 349.786 42.0739 349.308 43.6932H349.172V41.4091H345.652V54.5ZM360.829 54.7557C364.067 54.7557 366.249 53.179 366.761 50.75L363.403 50.5284C363.036 51.5256 362.099 52.0455 360.888 52.0455C359.073 52.0455 357.923 50.8438 357.923 48.892V48.8835H366.837V47.8864C366.837 43.4375 364.144 41.2386 360.684 41.2386C356.832 41.2386 354.335 43.9744 354.335 48.0142C354.335 52.1648 356.798 54.7557 360.829 54.7557ZM357.923 46.6335C357.999 45.142 359.133 43.9489 360.744 43.9489C362.32 43.9489 363.411 45.0739 363.42 46.6335H357.923ZM375.121 54.7557C378.607 54.7557 380.798 52.7102 380.968 49.7017H377.542C377.329 51.0994 376.408 51.8835 375.164 51.8835C373.468 51.8835 372.369 50.4602 372.369 47.9545C372.369 45.483 373.477 44.0682 375.164 44.0682C376.494 44.0682 377.346 44.946 377.542 46.25H380.968C380.815 43.2244 378.522 41.2386 375.104 41.2386C371.133 41.2386 368.678 43.9915 368.678 48.0057C368.678 51.9858 371.09 54.7557 375.121 54.7557ZM390.256 41.4091H387.793V38.2727H384.162V41.4091H382.372V44.1364H384.162V50.9545C384.145 53.5199 385.892 54.7898 388.526 54.679C389.463 54.6449 390.128 54.4574 390.494 54.3381L389.923 51.6364C389.744 51.6705 389.361 51.7557 389.02 51.7557C388.295 51.7557 387.793 51.483 387.793 50.4773V44.1364H390.256V41.4091ZM392.621 54.5H396.251V41.4091H392.621V54.5ZM394.445 39.7216C395.527 39.7216 396.413 38.8949 396.413 37.8807C396.413 36.875 395.527 36.0483 394.445 36.0483C393.371 36.0483 392.484 36.875 392.484 37.8807C392.484 38.8949 393.371 39.7216 394.445 39.7216ZM405.075 54.7557C409.046 54.7557 411.518 52.0369 411.518 48.0057C411.518 43.9489 409.046 41.2386 405.075 41.2386C401.103 41.2386 398.631 43.9489 398.631 48.0057C398.631 52.0369 401.103 54.7557 405.075 54.7557ZM405.092 51.9432C403.259 51.9432 402.322 50.2642 402.322 47.9801C402.322 45.696 403.259 44.0085 405.092 44.0085C406.89 44.0085 407.827 45.696 407.827 47.9801C407.827 50.2642 406.89 51.9432 405.092 51.9432ZM417.509 46.9318C417.518 45.2443 418.523 44.2557 419.989 44.2557C421.447 44.2557 422.325 45.2102 422.316 46.8125V54.5H425.947V46.1648C425.947 43.1136 424.157 41.2386 421.43 41.2386C419.487 41.2386 418.08 42.1932 417.492 43.7188H417.339V41.4091H413.879V54.5H417.509V46.9318ZM432.541 54.7472C434.476 54.7472 435.729 53.9034 436.368 52.6847H436.47V54.5H439.913V45.6705C439.913 42.5511 437.271 41.2386 434.357 41.2386C431.22 41.2386 429.158 42.7386 428.655 45.125L432.013 45.3977C432.26 44.5284 433.036 43.8892 434.339 43.8892C435.575 43.8892 436.283 44.5114 436.283 45.5852V45.6364C436.283 46.4801 435.388 46.5909 433.112 46.8125C430.521 47.0511 428.195 47.9205 428.195 50.8438C428.195 53.4347 430.044 54.7472 432.541 54.7472ZM433.581 52.2415C432.464 52.2415 431.663 51.7216 431.663 50.7244C431.663 49.7017 432.507 49.1989 433.786 49.0199C434.578 48.9091 435.874 48.7216 436.308 48.4318V49.821C436.308 51.1932 435.175 52.2415 433.581 52.2415ZM446.361 37.0455H442.73V54.5H446.361V37.0455ZM300.852 69.0881H306.196V83.5H309.844V69.0881H315.188V66.0455H300.852V69.0881ZM321.548 83.7557C324.786 83.7557 326.968 82.179 327.479 79.75L324.121 79.5284C323.755 80.5256 322.817 81.0455 321.607 81.0455C319.792 81.0455 318.641 79.8438 318.641 77.892V77.8835H327.556V76.8864C327.556 72.4375 324.863 70.2386 321.403 70.2386C317.55 70.2386 315.053 72.9744 315.053 77.0142C315.053 81.1648 317.516 83.7557 321.548 83.7557ZM318.641 75.6335C318.718 74.142 319.852 72.9489 321.462 72.9489C323.039 72.9489 324.13 74.0739 324.138 75.6335H318.641ZM329.925 83.5H333.556V75.642C333.556 74.1932 334.477 73.2301 335.687 73.2301C336.88 73.2301 337.681 74.0483 337.681 75.3352V83.5H341.201V75.5057C341.201 74.1506 341.977 73.2301 343.298 73.2301C344.457 73.2301 345.326 73.9545 345.326 75.4119V83.5H348.948V74.696C348.948 71.858 347.261 70.2386 344.823 70.2386C342.906 70.2386 341.414 71.2188 340.877 72.7188H340.741C340.323 71.2017 338.985 70.2386 337.187 70.2386C335.423 70.2386 334.085 71.1761 333.539 72.7188H333.386V70.4091H329.925V83.5ZM351.816 88.4091H355.447V81.4034H355.558C356.06 82.4943 357.16 83.7131 359.273 83.7131C362.256 83.7131 364.583 81.3523 364.583 76.9716C364.583 72.4716 362.154 70.2386 359.282 70.2386C357.092 70.2386 356.043 71.5426 355.558 72.608H355.396V70.4091H351.816V88.4091ZM355.37 76.9545C355.37 74.6193 356.359 73.1278 358.123 73.1278C359.921 73.1278 360.876 74.6875 360.876 76.9545C360.876 79.2386 359.904 80.8239 358.123 80.8239C356.376 80.8239 355.37 79.2898 355.37 76.9545ZM370.634 66.0455H367.004V83.5H370.634V66.0455ZM377.276 83.7472C379.21 83.7472 380.463 82.9034 381.102 81.6847H381.205V83.5H384.648V74.6705C384.648 71.5511 382.006 70.2386 379.091 70.2386C375.955 70.2386 373.892 71.7386 373.389 74.125L376.747 74.3977C376.994 73.5284 377.77 72.8892 379.074 72.8892C380.31 72.8892 381.017 73.5114 381.017 74.5852V74.6364C381.017 75.4801 380.122 75.5909 377.847 75.8125C375.256 76.0511 372.929 76.9205 372.929 79.8438C372.929 82.4347 374.778 83.7472 377.276 83.7472ZM378.315 81.2415C377.199 81.2415 376.398 80.7216 376.398 79.7244C376.398 78.7017 377.241 78.1989 378.52 78.0199C379.312 77.9091 380.608 77.7216 381.043 77.4318V78.821C381.043 80.1932 379.909 81.2415 378.315 81.2415ZM394.428 70.4091H391.964V67.2727H388.334V70.4091H386.544V73.1364H388.334V79.9545C388.317 82.5199 390.064 83.7898 392.697 83.679C393.635 83.6449 394.3 83.4574 394.666 83.3381L394.095 80.6364C393.916 80.6705 393.533 80.7557 393.192 80.7557C392.467 80.7557 391.964 80.483 391.964 79.4773V73.1364H394.428V70.4091ZM396.793 83.5H400.423V70.4091H396.793V83.5ZM398.616 68.7216C399.699 68.7216 400.585 67.8949 400.585 66.8807C400.585 65.875 399.699 65.0483 398.616 65.0483C397.543 65.0483 396.656 65.875 396.656 66.8807C396.656 67.8949 397.543 68.7216 398.616 68.7216ZM406.962 75.9318C406.971 74.2443 407.977 73.2557 409.442 73.2557C410.9 73.2557 411.778 74.2102 411.769 75.8125V83.5H415.4V75.1648C415.4 72.1136 413.61 70.2386 410.883 70.2386C408.94 70.2386 407.533 71.1932 406.945 72.7188H406.792V70.4091H403.332V83.5H406.962V75.9318ZM424.159 88.6818C427.901 88.6818 430.56 86.9773 430.56 83.6278V70.4091H426.955V72.608H426.818C426.332 71.5426 425.267 70.2386 423.077 70.2386C420.205 70.2386 417.776 72.4716 417.776 76.929C417.776 81.2841 420.136 83.3125 423.085 83.3125C425.173 83.3125 426.341 82.2642 426.818 81.1818H426.972V83.5767C426.972 85.375 425.821 86.0739 424.244 86.0739C422.642 86.0739 421.832 85.375 421.534 84.5824L418.176 85.0341C418.611 87.0966 420.631 88.6818 424.159 88.6818ZM424.236 80.5852C422.455 80.5852 421.483 79.1705 421.483 76.9119C421.483 74.6875 422.438 73.1278 424.236 73.1278C426 73.1278 426.989 74.6193 426.989 76.9119C426.989 79.2216 425.983 80.5852 424.236 80.5852ZM301.517 112.5H312.69V109.457H305.207V95.0455H301.517V112.5ZM315.066 112.5H318.697V99.4091H315.066V112.5ZM316.89 97.7216C317.972 97.7216 318.859 96.8949 318.859 95.8807C318.859 94.875 317.972 94.0483 316.89 94.0483C315.816 94.0483 314.93 94.875 314.93 95.8807C314.93 96.8949 315.816 97.7216 316.89 97.7216ZM321.673 112.5H325.253V110.403H325.415C325.918 111.494 327.017 112.713 329.131 112.713C332.114 112.713 334.44 110.352 334.44 105.972C334.44 101.472 332.011 99.2386 329.139 99.2386C326.949 99.2386 325.901 100.543 325.415 101.608H325.304V95.0455H321.673V112.5ZM325.227 105.955C325.227 103.619 326.216 102.128 327.98 102.128C329.778 102.128 330.733 103.688 330.733 105.955C330.733 108.239 329.761 109.824 327.98 109.824C326.233 109.824 325.227 108.29 325.227 105.955ZM336.863 112.5H340.494V105.094C340.494 103.483 341.67 102.375 343.272 102.375C343.775 102.375 344.465 102.46 344.806 102.571V99.3494C344.482 99.2727 344.031 99.2216 343.664 99.2216C342.198 99.2216 340.996 100.074 340.519 101.693H340.383V99.4091H336.863V112.5ZM350.041 112.747C351.976 112.747 353.229 111.903 353.868 110.685H353.97V112.5H357.413V103.67C357.413 100.551 354.771 99.2386 351.857 99.2386C348.72 99.2386 346.658 100.739 346.155 103.125L349.513 103.398C349.76 102.528 350.536 101.889 351.839 101.889C353.075 101.889 353.783 102.511 353.783 103.585V103.636C353.783 104.48 352.888 104.591 350.612 104.812C348.021 105.051 345.695 105.92 345.695 108.844C345.695 111.435 347.544 112.747 350.041 112.747ZM351.081 110.241C349.964 110.241 349.163 109.722 349.163 108.724C349.163 107.702 350.007 107.199 351.286 107.02C352.078 106.909 353.374 106.722 353.808 106.432V107.821C353.808 109.193 352.675 110.241 351.081 110.241ZM360.23 112.5H363.861V105.094C363.861 103.483 365.037 102.375 366.639 102.375C367.142 102.375 367.832 102.46 368.173 102.571V99.3494C367.849 99.2727 367.398 99.2216 367.031 99.2216C365.565 99.2216 364.364 100.074 363.886 101.693H363.75V99.4091H360.23V112.5ZM372.69 117.409C375.392 117.409 376.824 116.028 377.565 113.915L382.653 99.4091H378.81L376.074 109.023H375.938L373.227 99.4091H369.409L374.105 112.875L373.892 113.429C373.415 114.656 372.503 114.716 371.224 114.324L370.406 117.034C370.926 117.256 371.77 117.409 372.69 117.409Z" fill="white"/>
<defs>
<filter id="filter0_d" x="30" y="40" width="245.221" height="73.81" filterUnits="userSpaceOnUse" color-interpolation-filters="sRGB">
<feFlood flood-opacity="0" result="BackgroundImageFix"/>
<feColorMatrix in="SourceAlpha" type="matrix" values="0 0 0 0 0 0 0 0 0 0 0 0 0 0 0 0 0 0 127 0"/>
<feOffset dx="2.5" dy="2.5"/>
<feGaussianBlur stdDeviation="2.5"/>
<feColorMatrix type="matrix" values="0 0 0 0 0 0 0 0 0 0 0 0 0 0 0 0 0 0 0.4 0"/>
<feBlend mode="normal" in2="BackgroundImageFix" result="effect1_dropShadow"/>
<feBlend mode="normal" in="SourceGraphic" in2="effect1_dropShadow" result="shape"/>
</filter>
<linearGradient id="paint0_linear" x1="0" y1="0" x2="364.638" y2="287.457" gradientUnits="userSpaceOnUse">
<stop stop-color="#5DC9E2"/>
<stop offset="1" stop-color="#00ADD8"/>
</linearGradient>
</defs>
</svg>
