<svg width="640" height="320" viewBox="0 0 640 320" fill="none" xmlns="http://www.w3.org/2000/svg">
<rect width="640" height="320" fill="url(#paint0_linear)"/>
<g filter="url(#filter0_d)">
<path fill-rule="evenodd" clip-rule="evenodd" d="M194.735 70.02C194.993 70.0067 195.253 70 195.514 70H225.655C236.575 70 244.975 72.76 250.855 78.28C256.735 83.8 259.675 91.06 259.675 100.06C259.675 107.5 257.335 114.4 252.655 120.76C251.322 122.537 249.892 124.139 248.364 125.566C244.528 129.149 240.079 131.627 235.015 133C239.695 134.44 243.715 137.5 247.075 142.18C250.555 146.74 252.295 152.14 252.295 158.38C252.295 169.78 248.155 179.2 239.875 186.64C231.595 193.96 220.975 197.62 208.015 197.62H115.275C109.559 197.62 104.925 192.986 104.925 187.27C104.925 181.554 109.559 176.92 115.275 176.92H160.734L167.859 143.245H95.275C89.6003 143.245 85 138.645 85 132.97C85 127.295 89.6003 122.695 95.275 122.695H172.207L178.95 90.82H120.275C114.531 90.82 109.875 86.1638 109.875 80.42C109.875 74.6762 114.531 70.02 120.275 70.02H194.735ZM213.235 122.74H196.495L203.335 90.88H218.275C223.675 90.88 227.755 92.08 230.515 94.48C233.275 96.76 234.655 99.94 234.655 104.02C234.655 109.66 232.675 114.22 228.715 117.7C224.755 121.06 219.595 122.74 213.235 122.74ZM185.155 176.92L192.175 143.26H210.715C216.355 143.26 220.555 144.52 223.315 147.04C226.195 149.56 227.635 152.98 227.635 157.3C227.635 163.18 225.475 167.92 221.155 171.52C216.835 175.12 211.315 176.92 204.595 176.92H185.155Z" fill="white"/>
<path d="M270.802 197.62C262.969 197.62 257.123 190.409 258.741 182.746L280.526 79.7756L280.527 79.7695C281.735 74.0741 286.763 70 292.586 70C300.419 70 306.265 77.2102 304.647 84.8734L282.861 187.85C281.653 193.546 276.625 197.62 270.802 197.62Z" fill="white"/>
<path d="M369.766 197.62C375.376 197.62 380.221 193.696 381.387 188.209L381.388 188.201C382.953 180.814 377.318 173.86 369.766 173.86H328.991L347.85 84.6658C349.447 77.1099 343.683 70 335.961 70C330.224 70 325.27 74.0112 324.075 79.6202L302.941 179.515C300.968 188.842 308.082 197.62 317.616 197.62H369.766Z" fill="white"/>
<path d="M408.235 197.62C400.402 197.62 394.557 190.411 396.173 182.748L417.962 79.7577C419.175 74.0685 424.2 70 430.019 70C437.854 70 443.701 77.2134 442.079 84.8786L420.295 187.844C419.089 193.543 414.06 197.62 408.235 197.62Z" fill="white"/>
<path d="M543.647 93.58C549.209 93.58 554.014 89.6932 555.177 84.2543C556.745 76.9166 551.151 70 543.647 70H467.14C461.581 70 456.778 73.8822 455.612 79.3161L455.61 79.3257L455.608 79.3354C454.047 86.6695 459.639 93.58 467.14 93.58H491.263L472.398 182.958L472.396 182.969C470.809 190.52 476.571 197.62 484.288 197.62C490.033 197.62 494.992 193.598 496.179 187.977L513.591 105.482L513.597 105.456L516.103 93.58H543.647Z" fill="white"/>
</g>
<path d="M108.244 273H119.43C125.311 273 128.443 269.932 128.443 265.764C128.443 261.891 125.669 259.551 122.69 259.411V259.155C125.413 258.541 127.42 256.611 127.42 253.53C127.42 249.605 124.506 246.818 118.727 246.818H108.244V273ZM113.78 268.474V261.52H118.42C121.08 261.52 122.729 263.054 122.729 265.214C122.729 267.183 121.386 268.474 118.293 268.474H113.78ZM113.78 257.774V251.293H117.986C120.44 251.293 121.834 252.558 121.834 254.45C121.834 256.521 120.146 257.774 117.884 257.774H113.78ZM131.943 273H137.389V253.364H131.943V273ZM134.679 250.832C136.302 250.832 137.632 249.592 137.632 248.071C137.632 246.562 136.302 245.322 134.679 245.322C133.068 245.322 131.738 246.562 131.738 248.071C131.738 249.592 133.068 250.832 134.679 250.832ZM148.987 273.32C152.158 273.32 153.807 271.491 154.561 269.855H154.791V273H160.161V246.818H154.727V256.662H154.561C153.832 255.064 152.26 253.108 148.974 253.108C144.666 253.108 141.023 256.457 141.023 263.207C141.023 269.778 144.513 273.32 148.987 273.32ZM150.713 268.986C148.041 268.986 146.584 266.608 146.584 263.182C146.584 259.781 148.016 257.442 150.713 257.442C153.359 257.442 154.842 259.679 154.842 263.182C154.842 266.685 153.334 268.986 150.713 268.986ZM164.638 273H170.084V253.364H164.638V273ZM167.374 250.832C168.998 250.832 170.327 249.592 170.327 248.071C170.327 246.562 168.998 245.322 167.374 245.322C165.763 245.322 164.434 246.562 164.434 248.071C164.434 249.592 165.763 250.832 167.374 250.832ZM174.447 273H179.893V261.891C179.893 259.474 181.657 257.812 184.06 257.812C184.815 257.812 185.85 257.94 186.362 258.107V253.274C185.876 253.159 185.198 253.082 184.648 253.082C182.45 253.082 180.647 254.361 179.931 256.79H179.727V253.364H174.447V273ZM197.212 273.384C202.07 273.384 205.343 271.018 206.11 267.375L201.073 267.043C200.523 268.538 199.117 269.318 197.301 269.318C194.578 269.318 192.853 267.516 192.853 264.588V264.575H206.225V263.08C206.225 256.406 202.185 253.108 196.995 253.108C191.216 253.108 187.471 257.212 187.471 263.271C187.471 269.497 191.165 273.384 197.212 273.384ZM192.853 261.2C192.968 258.963 194.668 257.173 197.084 257.173C199.449 257.173 201.086 258.861 201.098 261.2H192.853ZM218.651 273.384C223.88 273.384 227.165 270.315 227.421 265.803H222.282C221.962 267.899 220.581 269.075 218.715 269.075C216.171 269.075 214.522 266.94 214.522 263.182C214.522 259.474 216.184 257.352 218.715 257.352C220.709 257.352 221.988 258.669 222.282 260.625H227.421C227.191 256.087 223.752 253.108 218.625 253.108C212.668 253.108 208.986 257.237 208.986 263.259C208.986 269.229 212.604 273.384 218.651 273.384ZM241.352 253.364H237.658V248.659H232.212V253.364H229.527V257.455H232.212V267.682C232.186 271.53 234.807 273.435 238.757 273.268C240.163 273.217 241.161 272.936 241.71 272.757L240.854 268.705C240.585 268.756 240.01 268.884 239.499 268.884C238.412 268.884 237.658 268.474 237.658 266.966V257.455H241.352V253.364ZM244.9 273H250.346V253.364H244.9V273ZM247.636 250.832C249.259 250.832 250.589 249.592 250.589 248.071C250.589 246.562 249.259 245.322 247.636 245.322C246.025 245.322 244.695 246.562 244.695 248.071C244.695 249.592 246.025 250.832 247.636 250.832ZM263.581 273.384C269.538 273.384 273.245 269.305 273.245 263.259C273.245 257.173 269.538 253.108 263.581 253.108C257.623 253.108 253.916 257.173 253.916 263.259C253.916 269.305 257.623 273.384 263.581 273.384ZM263.606 269.165C260.858 269.165 259.451 266.646 259.451 263.22C259.451 259.794 260.858 257.263 263.606 257.263C266.304 257.263 267.71 259.794 267.71 263.22C267.71 266.646 266.304 269.165 263.606 269.165ZM282.233 261.648C282.245 259.116 283.754 257.634 285.953 257.634C288.139 257.634 289.456 259.065 289.443 261.469V273H294.889V260.497C294.889 255.92 292.204 253.108 288.113 253.108C285.199 253.108 283.089 254.54 282.207 256.828H281.977V253.364H276.787V273H282.233V261.648ZM304.781 273.371C307.683 273.371 309.562 272.105 310.521 270.277H310.674V273H315.839V259.756C315.839 255.077 311.876 253.108 307.504 253.108C302.799 253.108 299.705 255.358 298.951 258.938L303.988 259.347C304.359 258.043 305.522 257.084 307.478 257.084C309.332 257.084 310.393 258.017 310.393 259.628V259.705C310.393 260.97 309.05 261.136 305.637 261.469C301.751 261.827 298.261 263.131 298.261 267.516C298.261 271.402 301.035 273.371 304.781 273.371ZM306.34 269.612C304.665 269.612 303.464 268.832 303.464 267.337C303.464 265.803 304.729 265.048 306.647 264.78C307.836 264.614 309.779 264.332 310.431 263.898V265.982C310.431 268.04 308.731 269.612 306.34 269.612ZM325.51 246.818H320.064V273H325.51V246.818ZM337.31 251.382H345.325V273H350.797V251.382H358.812V246.818H337.31V251.382ZM368.353 273.384C373.211 273.384 376.483 271.018 377.25 267.375L372.213 267.043C371.664 268.538 370.257 269.318 368.442 269.318C365.719 269.318 363.993 267.516 363.993 264.588V264.575H377.365V263.08C377.365 256.406 373.326 253.108 368.135 253.108C362.357 253.108 358.611 257.212 358.611 263.271C358.611 269.497 362.306 273.384 368.353 273.384ZM363.993 261.2C364.108 258.963 365.809 257.173 368.225 257.173C370.59 257.173 372.226 258.861 372.239 261.2H363.993ZM380.919 273H386.365V261.213C386.365 259.04 387.746 257.595 389.561 257.595C391.351 257.595 392.553 258.822 392.553 260.753V273H397.833V261.009C397.833 258.976 398.996 257.595 400.978 257.595C402.716 257.595 404.02 258.682 404.02 260.868V273H409.453V259.794C409.453 255.537 406.922 253.108 403.266 253.108C400.39 253.108 398.152 254.578 397.347 256.828H397.142C396.516 254.553 394.509 253.108 391.811 253.108C389.165 253.108 387.158 254.514 386.34 256.828H386.11V253.364H380.919V273ZM413.755 280.364H419.201V269.855H419.368C420.122 271.491 421.771 273.32 424.941 273.32C429.416 273.32 432.906 269.778 432.906 263.207C432.906 256.457 429.262 253.108 424.954 253.108C421.669 253.108 420.096 255.064 419.368 256.662H419.125V253.364H413.755V280.364ZM419.086 263.182C419.086 259.679 420.569 257.442 423.216 257.442C425.913 257.442 427.345 259.781 427.345 263.182C427.345 266.608 425.887 268.986 423.216 268.986C420.595 268.986 419.086 266.685 419.086 263.182ZM441.983 246.818H436.537V273H441.983V246.818ZM451.945 273.371C454.847 273.371 456.726 272.105 457.685 270.277H457.838V273H463.003V259.756C463.003 255.077 459.04 253.108 454.668 253.108C449.963 253.108 446.869 255.358 446.115 258.938L451.152 259.347C451.523 258.043 452.686 257.084 454.642 257.084C456.496 257.084 457.557 258.017 457.557 259.628V259.705C457.557 260.97 456.214 261.136 452.801 261.469C448.915 261.827 445.425 263.131 445.425 267.516C445.425 271.402 448.199 273.371 451.945 273.371ZM453.504 269.612C451.83 269.612 450.628 268.832 450.628 267.337C450.628 265.803 451.893 265.048 453.811 264.78C455 264.614 456.943 264.332 457.595 263.898V265.982C457.595 268.04 455.895 269.612 453.504 269.612ZM477.673 253.364H473.978V248.659H468.532V253.364H465.847V257.455H468.532V267.682C468.506 271.53 471.127 273.435 475.077 273.268C476.484 273.217 477.481 272.936 478.031 272.757L477.174 268.705C476.906 268.756 476.33 268.884 475.819 268.884C474.732 268.884 473.978 268.474 473.978 266.966V257.455H477.673V253.364ZM481.22 273H486.666V253.364H481.22V273ZM483.956 250.832C485.58 250.832 486.909 249.592 486.909 248.071C486.909 246.562 485.58 245.322 483.956 245.322C482.345 245.322 481.016 246.562 481.016 248.071C481.016 249.592 482.345 250.832 483.956 250.832ZM496.475 261.648C496.488 259.116 497.996 257.634 500.195 257.634C502.381 257.634 503.698 259.065 503.685 261.469V273H509.131V260.497C509.131 255.92 506.446 253.108 502.355 253.108C499.441 253.108 497.331 254.54 496.449 256.828H496.219V253.364H491.029V273H496.475V261.648ZM522.27 280.773C527.882 280.773 531.871 278.216 531.871 273.192V253.364H526.463V256.662H526.259C525.53 255.064 523.932 253.108 520.646 253.108C516.338 253.108 512.695 256.457 512.695 263.143C512.695 269.676 516.236 272.719 520.659 272.719C523.791 272.719 525.543 271.146 526.259 269.523H526.489V273.115C526.489 275.812 524.763 276.861 522.398 276.861C519.994 276.861 518.78 275.812 518.332 274.624L513.295 275.301C513.947 278.395 516.977 280.773 522.27 280.773ZM522.385 268.628C519.713 268.628 518.256 266.506 518.256 263.118C518.256 259.781 519.688 257.442 522.385 257.442C525.031 257.442 526.514 259.679 526.514 263.118C526.514 266.582 525.006 268.628 522.385 268.628Z" fill="white"/>
<defs>
<filter id="filter0_d" x="80" y="65" width="490.441" height="147.62" filterUnits="userSpaceOnUse" color-interpolation-filters="sRGB">
<feFlood flood-opacity="0" result="BackgroundImageFix"/>
<feColorMatrix in="SourceAlpha" type="matrix" values="0 0 0 0 0 0 0 0 0 0 0 0 0 0 0 0 0 0 127 0"/>
<feOffset dx="5" dy="5"/>
<feGaussianBlur stdDeviation="5"/>
<feColorMatrix type="matrix" values="0 0 0 0 0 0 0 0 0 0 0 0 0 0 0 0 0 0 0.4 0"/>
<feBlend mode="normal" in2="BackgroundImageFix" result="effect1_dropShadow"/>
<feBlend mode="normal" in="SourceGraphic" in2="effect1_dropShadow" result="shape"/>
</filter>
<linearGradient id="paint0_linear" x1="0" y1="0" x2="640" y2="320" gradientUnits="userSpaceOnUse">
<stop stop-color="#5DC9E2"/>
<stop offset="1" stop-color="#00ADD8"/>
</linearGradient>
</defs>
</svg>
